<svg id="_01-Bank" data-name="01-Bank" xmlns="http://www.w3.org/2000/svg" viewBox="0 0 48 48"><defs><style>.cls-1{fill:#f9df91;}.cls-2{fill:#c4a965;}.cls-3{fill:#3bb5d1;}.cls-4{fill:#1b6d91;}.cls-5{fill:#999;}.cls-6{fill:#666;}.cls-7{fill:#ccc;}.cls-8{fill:#024251;}</style></defs><title>01-Bank</title><g id="_Group_" data-name="&lt;Group&gt;"><polygon class="cls-1" points="26 3 24 1 5 20 24 20 43 20 26 3"/><polygon class="cls-2" points="25 5 27 7 40 20 43 20 26 3 24 1 5 20 10 20 25 5"/><polygon class="cls-3" points="24 1 5 20 3 20 3 16 18 1 24 1"/><polygon class="cls-3" points="45 16 45 20 43 20 26 3 24 1 30 1 45 16"/><polygon class="cls-4" points="21 1 3 19 3 20 5 20 24 1 21 1"/><polygon class="cls-4" points="30 1 27 1 42 16 42 19 43 20 45 20 45 16 30 1"/><path class="cls-5" d="M13,41v2H3V41a2.006,2.006,0,0,1,2-2h6A2.006,2.006,0,0,1,13,41Z"/><path class="cls-5" d="M29,41v2H19V41a2.006,2.006,0,0,1,2-2h6A2.006,2.006,0,0,1,29,41Z"/><path class="cls-5" d="M45,41v2H35V41a2.006,2.006,0,0,1,2-2h6A2.006,2.006,0,0,1,45,41Z"/><path class="cls-5" d="M45,24v2a2.006,2.006,0,0,1-2,2H37a2.006,2.006,0,0,1-2-2V24Z"/><path class="cls-5" d="M13,24v2a2.006,2.006,0,0,1-2,2H5a2.006,2.006,0,0,1-2-2V24Z"/><path class="cls-5" d="M29,24v2a2.006,2.006,0,0,1-2,2H21a2.006,2.006,0,0,1-2-2V24Z"/><path class="cls-6" d="M11,39H10v2H3v2H13V41A2.006,2.006,0,0,0,11,39Z"/><path class="cls-6" d="M27,39H26v2H19v2H29V41A2.006,2.006,0,0,0,27,39Z"/><path class="cls-6" d="M43,39H42v2H35v2H45V41A2.006,2.006,0,0,0,43,39Z"/><path class="cls-6" d="M45,26V24H35v2a2.006,2.006,0,0,0,2,2V26Z"/><path class="cls-6" d="M13,26V24H3v2a2.006,2.006,0,0,0,2,2V26Z"/><path class="cls-6" d="M29,26V24H19v2a2.006,2.006,0,0,0,2,2V26Z"/><rect class="cls-7" x="37" y="28" width="6" height="11"/><rect class="cls-7" x="5" y="28" width="6" height="11"/><rect class="cls-7" x="21" y="28" width="6" height="11"/><polygon class="cls-5" points="40 28 40 37 37 37 37 39 43 39 43 28 40 28"/><polygon class="cls-5" points="8 28 8 37 5 37 5 39 11 39 11 28 8 28"/><polygon class="cls-5" points="24 28 24 37 21 37 21 39 27 39 27 28 24 28"/><path class="cls-4" d="M45,43a2.006,2.006,0,0,1,2,2v2H1V45a2.006,2.006,0,0,1,2-2H45Z"/><path class="cls-8" d="M45,43H43v2H1v2H47V45A2.006,2.006,0,0,0,45,43Z"/><polygon class="cls-4" points="45 20 47 20 47 24 45 24 35 24 29 24 19 24 13 24 3 24 1 24 1 20 3 20 5 20 24 20 43 20 45 20"/><polygon class="cls-8" points="45 20 44 20 44 22 42 22 32 22 26 22 16 22 10 22 1 22 1 24 3 24 13 24 19 24 29 24 35 24 45 24 47 24 47 20 45 20"/><path d="M46,26V25h1a1,1,0,0,0,1-1V20a1,1,0,0,0-1-1H46V16a1,1,0,0,0-.293-.707l-15-15A1,1,0,0,0,30,0H18a1,1,0,0,0-.707.293l-15,15A1,1,0,0,0,2,16v3H1a1,1,0,0,0-1,1v4a1,1,0,0,0,1,1H2v1a3,3,0,0,0,2,2.816v9.368A3,3,0,0,0,2,41v1.184A3,3,0,0,0,0,45v2a1,1,0,0,0,1,1H47a1,1,0,0,0,1-1V45a3,3,0,0,0-2-2.816V41a3,3,0,0,0-2-2.816V28.816A3,3,0,0,0,46,26ZM34,41v1H30V41a3,3,0,0,0-2-2.816V28.816A3,3,0,0,0,30,26V25h4v1a3,3,0,0,0,2,2.816v9.368A3,3,0,0,0,34,41ZM18,41v1H14V41a3,3,0,0,0-2-2.816V28.816A3,3,0,0,0,14,26V25h4v1a3,3,0,0,0,2,2.816v9.368A3,3,0,0,0,18,41ZM11,27H5a1,1,0,0,1-1-1V25h8v1A1,1,0,0,1,11,27Zm-1,2v9H6V29Zm12,0h4v9H22Zm5-2H21a1,1,0,0,1-1-1V25h8v1A1,1,0,0,1,27,27ZM20,41a1,1,0,0,1,1-1h6a1,1,0,0,1,1,1v1H20Zm16,0a1,1,0,0,1,1-1h6a1,1,0,0,1,1,1v1H36Zm2-3V29h4v9Zm6-12a1,1,0,0,1-1,1H37a1,1,0,0,1-1-1V25h8Zm0-9.586V19h-.586l-17-17h3.172ZM25,17h1a1,1,0,0,0,1-1V12a1,1,0,0,0-1-1H23V9h2v1h2V8a1,1,0,0,0-1-1H25V5H23V7H22a1,1,0,0,0-1,1v4a1,1,0,0,0,1,1h3v2H23V14H21v2a1,1,0,0,0,1,1h1v2H7.414L24,2.414,40.586,19H25ZM4,16.414,18.414,2h3.172l-17,17H4ZM2,23V21H46v2H2ZM4,41a1,1,0,0,1,1-1h6a1,1,0,0,1,1,1v1H4Zm42,4v1H2V45a1,1,0,0,1,1-1H45A1,1,0,0,1,46,45Z"/><rect x="17" y="12" width="2" height="2"/><rect x="29" y="12" width="2" height="2"/></g></svg>